<svg version="1" xmlns="http://www.w3.org/2000/svg" width="346.667" height="346.667" viewBox="0 0 260.000000 260.000000"><path d="M52.3 6.5c-17.8 4-34.5 17.7-42 34.4-14 31.4.8 68.2 32.8 81.2 40.2 16.3 84.7-14.4 83.3-57.6-.3-10-1.4-15.3-5.1-23.4C111.7 19.6 91.7 6.2 68 5.4c-5.8-.2-11.9.2-15.7 1.1zM183 5.7c-8.5 1.4-20.1 6.6-27 12.1-24.4 19.4-30.5 51.2-15.2 79 1.4 2.6 6 8.1 10.2 12.2 11.4 11.3 23.9 16.8 39.7 17.4 40.4 1.6 70.8-35.3 61.6-74.9-5-21.4-23.6-39.9-45.3-45-6-1.4-18.1-1.8-24-.8zM59 132.8c-1.9.1-4.2.6-5 .9-.8.3-2.1.5-2.9.4-.7-.1-1.1.1-.8.6.3.4-.8.9-2.4 1-7.9.6-27.8 14.9-31.9 23-.8 1.5-2.1 3.4-2.8 4.2-.7.7-1.1 2-.8 2.8.3.8.2 1.1-.3.8-.8-.4-2.3 2.2-2.6 4.5 0 .3-.3.9-.7 1.5-.3.5-1.3 3.6-2.1 6.7-1 4-1.2 5.9-.4 6.7.8.8.8 1.1-.1 1.1-2.4 0-.7 16.8 2.6 26.2 1.6 4.5 3.4 8.2 4 8.1.6-.2.9.4.6 1.1-.3.8.4 2.4 1.5 3.5 1.2 1.2 2.1 2.4 2.1 2.8.1 1.2 8 10.3 9 10.3.4 0 2.2 1.3 4 3 1.8 1.6 3.8 3 4.6 3 .8 0 1.4.4 1.4 1 0 .5.7 1 1.6 1 .9 0 1.2-.5.8-1.3-.4-.7-.3-.9.2-.4s.9 1.4.9 2c0 .5 3 2 6.8 3.2 4.2 1.4 6.7 1.8 6.7 1.1s.3-.7.8.1c.4.7 3.4 1.5 6.6 1.9 5.1.6 6.1.5 7.4-1.2 1.3-1.7 1.4-1.7.8-.1-.6 1.8.9 1.9 9.4.3 7.2-1.4 18.4-6.2 17.5-7.6-.3-.5 0-.7.8-.4 1.9.7 10.7-5.7 10.2-7.4-.3-.7-.1-1.1.4-.8 1.8 1.1 11.8-11.5 10.6-13.4-.4-.6-.1-.9.6-.8 1.4.4 6-10 5.5-12.5-.2-.9 0-1.5.5-1.1.5.3.9-.3 1-1.3 0-1 .2-2.7.5-3.8 1.4-6.3.2-27.1-1.5-26.1-.4.3-.7-.5-.7-1.7 0-2.7-5.4-14.7-6.6-14.7-.4 0-.8-.6-.8-1.4 0-2-12.7-14.9-14-14.1-.6.3-.9.1-.8-.5.2-.7-1.3-2.1-3.2-3.1-1.9-1.1-4.4-2.5-5.5-3.2-1.1-.7-2.4-1.2-3-1.2-.5-.1-2.1-.7-3.4-1.4-1.3-.7-4.1-1.4-6.1-1.5-2.1 0-3.6-.4-3.3-.9.2-.4-.8-.7-2.4-.8-1.5 0-4.8-.2-7.3-.2-2.5-.1-6.1-.1-8 .1zm31 10.8c0 .8-1.9 1.3-2.4.6-.3-.5.1-.9.9-.9s1.5.2 1.5.3zM32.6 146c0 1.2-.4 1.6-.9 1.1s-.6-1.4-.3-2c1-1.5 1.2-1.4 1.2.9zM21 156.4c0 .2-.8 1-1.7 1.7-1.6 1.3-1.7 1.2-.4-.4 1.3-1.6 2.1-2.1 2.1-1.3zm60.1 3.3c1.3 1.6 1.2 1.7-.3.4-1-.7-1.8-1.5-1.8-1.7 0-.8.8-.3 2.1 1.3zm15.6 52.8c0 .8-.4 1.2-.9.9-.5-.3-.6-1-.3-1.5.9-1.3 1.2-1.1 1.2.6zm-.3 16.1c.3.8.2 1.2-.4.9-.6-.3-1-1-1-1.6 0-1.4.7-1.1 1.4.7zm12.6 3c0 .8-1.9 1.3-2.4.6-.3-.5.1-.9.9-.9s1.5.2 1.5.3zm-68.9 9.7c-1 .9-1.1.8-.5-.6.3-1 .9-1.5 1.2-1.2.3.3 0 1.1-.7 1.8zm5.9 6.3c0 .8-1.9 1.3-2.4.6-.3-.5.1-.9.9-.9s1.5.2 1.5.3zM184 133.1c-12.5 1.7-26.2 9.1-35.3 18.9-28.8 31.1-17.6 81.8 21.6 97.4 9.3 3.7 16.7 4.9 26.7 4.3 26.4-1.5 49.4-20.9 55.4-46.7 1.9-7.9 1.5-24.3-.7-31.1-9.6-29.6-37.2-47-67.7-42.8z"/></svg>